<svg width="225" height="123" viewBox="0 0 225 123" fill="none" xmlns="http://www.w3.org/2000/svg">
<path d="M10 23.7324H14.5L14.5 98.7659H10C4.75329 98.7659 0.5 94.5126 0.5 89.2659L0.5 33.2324C0.5 27.9857 4.75329 23.7324 10 23.7324Z" fill="#FFFBFB" stroke="black"/>
<path d="M25 11.0605H29.5L29.5 110.382H25C19.7533 110.382 15.5 106.129 15.5 100.882L15.5 20.5605C15.5 15.3138 19.7533 11.0605 25 11.0605Z" fill="#FFFBFB" stroke="black"/>
<path d="M40 0.5L44.5 0.5L44.5 120.942H40C34.7533 120.942 30.5 116.689 30.5 111.442L30.5 9.99999C30.5 4.75329 34.7533 0.5 40 0.5Z" fill="#FFFBFB" stroke="black"/>
<path d="M215 97.71H210.5V22.6765H215C220.247 22.6765 224.5 26.9298 224.5 32.1765V88.21C224.5 93.4567 220.247 97.71 215 97.71Z" fill="#FFFBFB" stroke="black"/>
<path d="M200 110.382H195.5V11.0599H200C205.247 11.0599 209.5 15.3132 209.5 20.5599V100.882C209.5 106.129 205.247 110.382 200 110.382Z" fill="#FFFBFB" stroke="black"/>
<path d="M185 121.999H180.5V1.55624H185C190.247 1.55624 194.5 5.80954 194.5 11.0562V112.499C194.5 117.745 190.247 121.999 185 121.999Z" fill="#FFFBFB" stroke="black"/>
<rect x="45.5" y="53.3008" width="134" height="14.8403" fill="white" stroke="black"/>
</svg>
